<svg width="40" height="40" viewBox="0 0 40 40" fill="none" xmlns="http://www.w3.org/2000/svg">
<path d="M33.4167 19.1167L21.75 7.44999C21.4285 7.13739 20.9646 7.02006 20.5331 7.14222C20.1016 7.26438 19.768 7.60746 19.6581 8.04222C19.5481 8.47699 19.6785 8.93739 20 9.24999L29.5167 18.75H7.46667C6.77631 18.75 6.21667 19.3096 6.21667 20C6.21667 20.6903 6.77631 21.25 7.46667 21.25H29.5L20 30.75C19.7618 30.9821 19.6274 31.3007 19.6274 31.6333C19.6274 31.966 19.7618 32.2845 20 32.5167C20.2297 32.7577 20.5504 32.8908 20.8833 32.8833C21.2151 32.8849 21.5335 32.7527 21.7667 32.5167L33.4333 20.85C33.9208 20.362 33.9208 19.5714 33.4333 19.0833L33.4167 19.1167Z" fill="#33FF00"/>
</svg>
