<svg width="50" height="40" viewBox="0 0 50 40" fill="none" xmlns="http://www.w3.org/2000/svg">
<path d="M19.9999 0C15.2509 0.000201911 10.6569 1.73298 7.03994 4.88828C3.42297 8.04358 1.01905 12.4155 0.258319 17.2218C-0.502411 22.0281 0.429687 26.9551 2.88783 31.1212C5.34598 35.2873 9.16976 38.4207 13.675 39.9607C14.675 40.1402 15.05 39.5251 15.05 38.9867C15.05 38.4997 15.025 36.8849 15.025 35.1675C9.99998 36.1159 8.69999 33.9116 8.3 32.7581C7.85615 31.6363 7.15255 30.6422 6.25001 29.8616C5.55002 29.4772 4.55002 28.5288 6.22499 28.5032C6.86456 28.5743 7.47798 28.8025 8.01326 29.1684C8.54854 29.5342 8.98992 30.027 9.29999 30.605C9.57353 31.1088 9.94134 31.5523 10.3824 31.9101C10.8234 32.268 11.3289 32.5331 11.87 32.6902C12.4111 32.8474 12.9772 32.8935 13.5357 32.826C14.0942 32.7584 14.6343 32.5786 15.1249 32.2967C15.2115 31.2542 15.6646 30.2795 16.3999 29.5541C11.95 29.0415 7.3 27.2728 7.3 19.4293C7.2719 17.3914 8.00537 15.4196 9.34999 13.9184C8.73856 12.1471 8.8101 10.2033 9.54999 8.48436C9.54999 8.48436 11.2249 7.94606 15.0499 10.5862C18.3225 9.66339 21.7773 9.66339 25.0499 10.5862C28.8748 7.92044 30.5498 8.48436 30.5498 8.48436C31.2898 10.2033 31.3614 12.1472 30.7498 13.9184C32.0985 15.417 32.8326 17.3905 32.7998 19.4293C32.7998 27.2984 28.1248 29.0415 23.6749 29.5541C24.1522 30.0501 24.5198 30.6456 24.7527 31.3002C24.9857 31.9548 25.0785 32.6531 25.0249 33.3477C25.0249 36.0904 24.9999 38.2947 24.9999 38.9868C24.9999 39.5251 25.3749 40.1659 26.3749 39.9608C30.8722 38.4083 34.6849 35.2675 37.1326 31.0993C39.5803 26.931 40.5035 22.0065 39.7375 17.2049C38.9715 12.4033 36.5661 8.037 32.9508 4.88554C29.3354 1.73408 24.7453 0.00253228 19.9999 0Z" fill="#33FF00"/>
</svg>
