<svg width="16" height="16" viewBox="0 0 16 16" fill="none" xmlns="http://www.w3.org/2000/svg">
<g clip-path="url(#clip0_176_2735)">
<path d="M6.06001 6C6.21675 5.55444 6.52611 5.17874 6.93331 4.93942C7.34052 4.70011 7.81927 4.61263 8.28479 4.69247C8.75032 4.77232 9.17255 5.01435 9.47673 5.37569C9.7809 5.73702 9.94738 6.19435 9.94668 6.66667C9.94668 8 7.94668 8.66667 7.94668 8.66667M8.00001 11.3333H8.00668M14.6667 8C14.6667 11.6819 11.6819 14.6667 8.00001 14.6667C4.31811 14.6667 1.33334 11.6819 1.33334 8C1.33334 4.3181 4.31811 1.33333 8.00001 1.33333C11.6819 1.33333 14.6667 4.3181 14.6667 8Z" stroke="#98A2B3" stroke-width="1.33333" stroke-linecap="round" stroke-linejoin="round"/>
</g>
<defs>
<clipPath id="clip0_176_2735">
<rect width="16" height="16" fill="white"/>
</clipPath>
</defs>
</svg>
